<mxfile host="app.diagrams.net" agent="Mozilla/5.0 (Windows NT 10.0; Win64; x64) AppleWebKit/537.36 (KHTML, like Gecko) Chrome/130.0.0.0 Safari/537.36" version="24.8.4">
  <diagram name="Page-1" id="2YSgosPHiig1Jv7sbl7X">
    <mxGraphModel dx="6538" dy="2252" grid="1" gridSize="10" guides="1" tooltips="1" connect="1" arrows="1" fold="1" page="1" pageScale="1" pageWidth="1169" pageHeight="827" math="0" shadow="0">
      <root>
        <mxCell id="0" />
        <mxCell id="1" parent="0" />
        <mxCell id="xhrjm7PEqScBgSwsqHAB-1" value="«interface»&lt;br&gt;&lt;b&gt;ShapeInterface&lt;/b&gt;&lt;div style=&quot;text-align: left;&quot;&gt;&lt;b&gt;____________________________________&lt;/b&gt;&lt;/div&gt;&lt;div style=&quot;font-size: 9px;&quot;&gt;&lt;div style=&quot;text-align: left;&quot;&gt;&lt;b&gt;+ setPosition(Point startingP,Point EndingP) void&lt;/b&gt;&lt;/div&gt;&lt;div style=&quot;text-align: left;&quot;&gt;&lt;b style=&quot;background-color: initial;&quot;&gt;+ setProperties(Map&amp;lt;String,Double&amp;gt; properties) void&lt;/b&gt;&lt;/div&gt;&lt;div style=&quot;text-align: left;&quot;&gt;&lt;b style=&quot;background-color: initial;&quot;&gt;+ getProperties()&amp;nbsp;&lt;/b&gt;&lt;b style=&quot;background-color: initial;&quot;&gt;Map&amp;lt;String,Double&amp;gt;&amp;nbsp;&lt;/b&gt;&lt;/div&gt;&lt;div style=&quot;text-align: left;&quot;&gt;&lt;b&gt;+ setColor(Color color) void&lt;/b&gt;&lt;/div&gt;&lt;div style=&quot;text-align: left;&quot;&gt;&lt;b&gt;+ getColor() Color&lt;/b&gt;&lt;/div&gt;&lt;div style=&quot;text-align: left;&quot;&gt;&lt;b&gt;+draw(java.awt.Graphics canvas) void&lt;/b&gt;&lt;/div&gt;&lt;div style=&quot;text-align: left;&quot;&gt;&lt;b&gt;+ setFill(boolean fill) void&lt;/b&gt;&lt;/div&gt;&lt;div style=&quot;text-align: left;&quot;&gt;&lt;b&gt;+ boolean isFilled() boolean&lt;/b&gt;&lt;/div&gt;&lt;/div&gt;" style="html=1;whiteSpace=wrap;rounded=1;" parent="1" vertex="1">
          <mxGeometry x="190" y="10" width="240" height="130" as="geometry" />
        </mxCell>
        <mxCell id="xhrjm7PEqScBgSwsqHAB-2" value="" style="endArrow=block;dashed=1;endFill=0;endSize=12;html=1;rounded=1;entryX=0.394;entryY=1.029;entryDx=0;entryDy=0;entryPerimeter=0;exitX=0.473;exitY=-0.024;exitDx=0;exitDy=0;exitPerimeter=0;" parent="1" source="xhrjm7PEqScBgSwsqHAB-3" target="xhrjm7PEqScBgSwsqHAB-1" edge="1">
          <mxGeometry width="160" relative="1" as="geometry">
            <mxPoint x="220" y="230" as="sourcePoint" />
            <mxPoint x="350" y="210" as="targetPoint" />
          </mxGeometry>
        </mxCell>
        <mxCell id="xhrjm7PEqScBgSwsqHAB-44" value="implements" style="edgeLabel;html=1;align=center;verticalAlign=middle;resizable=0;points=[];rounded=1;" parent="xhrjm7PEqScBgSwsqHAB-2" vertex="1" connectable="0">
          <mxGeometry x="-0.0419" relative="1" as="geometry">
            <mxPoint as="offset" />
          </mxGeometry>
        </mxCell>
        <mxCell id="xhrjm7PEqScBgSwsqHAB-3" value="&lt;i&gt;Shape&lt;/i&gt;" style="swimlane;fontStyle=1;align=center;verticalAlign=top;childLayout=stackLayout;horizontal=1;startSize=26;horizontalStack=0;resizeParent=1;resizeParentMax=0;resizeLast=0;collapsible=1;marginBottom=0;whiteSpace=wrap;html=1;rounded=1;" parent="1" vertex="1">
          <mxGeometry x="120" y="200" width="350" height="260" as="geometry" />
        </mxCell>
        <mxCell id="xhrjm7PEqScBgSwsqHAB-4" value="&lt;div&gt;# topLeftPoint&amp;nbsp;&lt;span style=&quot;background-color: initial;&quot;&gt;Point&lt;/span&gt;&lt;span style=&quot;background-color: initial;&quot;&gt;&amp;nbsp;&lt;/span&gt;&lt;span style=&quot;background-color: initial;&quot;&gt;&amp;nbsp;&lt;/span&gt;&lt;/div&gt;&lt;div&gt;# bottomRightPoint&amp;nbsp;&lt;span style=&quot;background-color: initial;&quot;&gt;Point&lt;/span&gt;&lt;span style=&quot;background-color: initial;&quot;&gt;&amp;nbsp;&lt;/span&gt;&lt;span style=&quot;background-color: initial;&quot;&gt;&amp;nbsp;&lt;/span&gt;&lt;/div&gt;&lt;div&gt;# properties&amp;nbsp;&lt;span style=&quot;background-color: initial;&quot;&gt;Map&amp;lt;String, Double&amp;gt;&lt;/span&gt;&lt;/div&gt;&lt;div&gt;# color Color&amp;nbsp;&lt;/div&gt;&lt;div&gt;# fill boolean&amp;nbsp;&lt;/div&gt;&lt;div&gt;# stroke Stroke&lt;/div&gt;" style="text;strokeColor=none;fillColor=none;align=left;verticalAlign=top;spacingLeft=4;spacingRight=4;overflow=hidden;rotatable=0;points=[[0,0.5],[1,0.5]];portConstraint=eastwest;whiteSpace=wrap;html=1;rounded=1;" parent="xhrjm7PEqScBgSwsqHAB-3" vertex="1">
          <mxGeometry y="26" width="350" height="94" as="geometry" />
        </mxCell>
        <mxCell id="xhrjm7PEqScBgSwsqHAB-5" value="" style="line;strokeWidth=1;fillColor=none;align=left;verticalAlign=middle;spacingTop=-1;spacingLeft=3;spacingRight=3;rotatable=0;labelPosition=right;points=[];portConstraint=eastwest;strokeColor=inherit;rounded=1;" parent="xhrjm7PEqScBgSwsqHAB-3" vertex="1">
          <mxGeometry y="120" width="350" height="8" as="geometry" />
        </mxCell>
        <mxCell id="xhrjm7PEqScBgSwsqHAB-6" value="+&amp;nbsp;setPosition(Point startingP, Point EndingP) void&lt;div&gt;+&amp;nbsp;setProperties(Map&amp;lt;String,Double&amp;gt;) void&lt;div&gt;+ getProperties()&amp;nbsp;&lt;span style=&quot;background-color: initial;&quot;&gt;Map&amp;lt;String,Double&amp;gt;&lt;/span&gt;&lt;span style=&quot;background-color: initial;&quot;&gt;&amp;nbsp;&lt;/span&gt;&lt;span style=&quot;background-color: initial; white-space: pre;&quot;&gt;&#x9;&lt;/span&gt;&lt;/div&gt;&lt;/div&gt;&lt;div&gt;+ setColor(Color c) void&lt;/div&gt;&lt;div&gt;+ getColor() Color&lt;/div&gt;&lt;div&gt;+ draw(Graphics canvas) void&lt;/div&gt;&lt;div&gt;+ setFill(boolean fill) void&lt;/div&gt;&lt;div&gt;+ isFIlled() boolean&lt;/div&gt;" style="text;strokeColor=none;fillColor=none;align=left;verticalAlign=top;spacingLeft=4;spacingRight=4;overflow=hidden;rotatable=0;points=[[0,0.5],[1,0.5]];portConstraint=eastwest;whiteSpace=wrap;html=1;rounded=1;" parent="xhrjm7PEqScBgSwsqHAB-3" vertex="1">
          <mxGeometry y="128" width="350" height="132" as="geometry" />
        </mxCell>
        <mxCell id="xhrjm7PEqScBgSwsqHAB-7" value="Extends" style="endArrow=block;endSize=16;endFill=0;html=1;rounded=1;entryX=0.467;entryY=1.002;entryDx=0;entryDy=0;entryPerimeter=0;" parent="1" target="xhrjm7PEqScBgSwsqHAB-6" edge="1">
          <mxGeometry x="-0.008" width="160" relative="1" as="geometry">
            <mxPoint x="280" y="510" as="sourcePoint" />
            <mxPoint x="350" y="510" as="targetPoint" />
            <Array as="points">
              <mxPoint x="280" y="500" />
            </Array>
            <mxPoint as="offset" />
          </mxGeometry>
        </mxCell>
        <mxCell id="xhrjm7PEqScBgSwsqHAB-8" value="LineSegment" style="swimlane;fontStyle=1;align=center;verticalAlign=top;childLayout=stackLayout;horizontal=1;startSize=26;horizontalStack=0;resizeParent=1;resizeParentMax=0;resizeLast=0;collapsible=1;marginBottom=0;whiteSpace=wrap;html=1;rounded=1;" parent="1" vertex="1">
          <mxGeometry x="-190" y="570" width="220" height="60" as="geometry" />
        </mxCell>
        <mxCell id="xhrjm7PEqScBgSwsqHAB-10" value="" style="line;strokeWidth=1;fillColor=none;align=left;verticalAlign=middle;spacingTop=-1;spacingLeft=3;spacingRight=3;rotatable=0;labelPosition=right;points=[];portConstraint=eastwest;strokeColor=inherit;rounded=1;" parent="xhrjm7PEqScBgSwsqHAB-8" vertex="1">
          <mxGeometry y="26" width="220" height="8" as="geometry" />
        </mxCell>
        <mxCell id="xhrjm7PEqScBgSwsqHAB-11" value="+ draw(Graphics canvas) void" style="text;strokeColor=none;fillColor=none;align=left;verticalAlign=top;spacingLeft=4;spacingRight=4;overflow=hidden;rotatable=0;points=[[0,0.5],[1,0.5]];portConstraint=eastwest;whiteSpace=wrap;html=1;rounded=1;" parent="xhrjm7PEqScBgSwsqHAB-8" vertex="1">
          <mxGeometry y="34" width="220" height="26" as="geometry" />
        </mxCell>
        <mxCell id="xhrjm7PEqScBgSwsqHAB-12" value="" style="endArrow=none;html=1;edgeStyle=orthogonalEdgeStyle;rounded=1;exitX=0.818;exitY=0;exitDx=0;exitDy=0;exitPerimeter=0;" parent="1" source="xhrjm7PEqScBgSwsqHAB-8" edge="1">
          <mxGeometry relative="1" as="geometry">
            <mxPoint x="60" y="560" as="sourcePoint" />
            <mxPoint x="280" y="510" as="targetPoint" />
          </mxGeometry>
        </mxCell>
        <mxCell id="xhrjm7PEqScBgSwsqHAB-24" value="Rectangle" style="swimlane;fontStyle=1;align=center;verticalAlign=top;childLayout=stackLayout;horizontal=1;startSize=26;horizontalStack=0;resizeParent=1;resizeParentMax=0;resizeLast=0;collapsible=1;marginBottom=0;whiteSpace=wrap;html=1;rounded=1;" parent="1" vertex="1">
          <mxGeometry x="190" y="580" width="170" height="104" as="geometry" />
        </mxCell>
        <mxCell id="xhrjm7PEqScBgSwsqHAB-25" value="- width int&lt;div&gt;- height int&lt;/div&gt;" style="text;strokeColor=none;fillColor=none;align=left;verticalAlign=top;spacingLeft=4;spacingRight=4;overflow=hidden;rotatable=0;points=[[0,0.5],[1,0.5]];portConstraint=eastwest;whiteSpace=wrap;html=1;rounded=1;" parent="xhrjm7PEqScBgSwsqHAB-24" vertex="1">
          <mxGeometry y="26" width="170" height="44" as="geometry" />
        </mxCell>
        <mxCell id="xhrjm7PEqScBgSwsqHAB-26" value="" style="line;strokeWidth=1;fillColor=none;align=left;verticalAlign=middle;spacingTop=-1;spacingLeft=3;spacingRight=3;rotatable=0;labelPosition=right;points=[];portConstraint=eastwest;strokeColor=inherit;rounded=1;" parent="xhrjm7PEqScBgSwsqHAB-24" vertex="1">
          <mxGeometry y="70" width="170" height="8" as="geometry" />
        </mxCell>
        <mxCell id="xhrjm7PEqScBgSwsqHAB-27" value="+ draw(Graphics canvas) void" style="text;strokeColor=none;fillColor=none;align=left;verticalAlign=top;spacingLeft=4;spacingRight=4;overflow=hidden;rotatable=0;points=[[0,0.5],[1,0.5]];portConstraint=eastwest;whiteSpace=wrap;html=1;rounded=1;" parent="xhrjm7PEqScBgSwsqHAB-24" vertex="1">
          <mxGeometry y="78" width="170" height="26" as="geometry" />
        </mxCell>
        <mxCell id="xhrjm7PEqScBgSwsqHAB-29" value="" style="endArrow=none;html=1;edgeStyle=orthogonalEdgeStyle;rounded=1;entryX=0.404;entryY=0.009;entryDx=0;entryDy=0;entryPerimeter=0;" parent="1" target="xhrjm7PEqScBgSwsqHAB-24" edge="1">
          <mxGeometry relative="1" as="geometry">
            <mxPoint x="260" y="540" as="sourcePoint" />
            <mxPoint x="260" y="590" as="targetPoint" />
            <Array as="points">
              <mxPoint x="260" y="581" />
            </Array>
          </mxGeometry>
        </mxCell>
        <mxCell id="xhrjm7PEqScBgSwsqHAB-32" value="Circle" style="swimlane;fontStyle=1;align=center;verticalAlign=top;childLayout=stackLayout;horizontal=1;startSize=26;horizontalStack=0;resizeParent=1;resizeParentMax=0;resizeLast=0;collapsible=1;marginBottom=0;whiteSpace=wrap;html=1;rounded=1;" parent="1" vertex="1">
          <mxGeometry x="470" y="580" width="170" height="84" as="geometry" />
        </mxCell>
        <mxCell id="xhrjm7PEqScBgSwsqHAB-33" value="&lt;div&gt;- radius int&lt;/div&gt;" style="text;strokeColor=none;fillColor=none;align=left;verticalAlign=top;spacingLeft=4;spacingRight=4;overflow=hidden;rotatable=0;points=[[0,0.5],[1,0.5]];portConstraint=eastwest;whiteSpace=wrap;html=1;rounded=1;" parent="xhrjm7PEqScBgSwsqHAB-32" vertex="1">
          <mxGeometry y="26" width="170" height="24" as="geometry" />
        </mxCell>
        <mxCell id="xhrjm7PEqScBgSwsqHAB-34" value="" style="line;strokeWidth=1;fillColor=none;align=left;verticalAlign=middle;spacingTop=-1;spacingLeft=3;spacingRight=3;rotatable=0;labelPosition=right;points=[];portConstraint=eastwest;strokeColor=inherit;rounded=1;" parent="xhrjm7PEqScBgSwsqHAB-32" vertex="1">
          <mxGeometry y="50" width="170" height="8" as="geometry" />
        </mxCell>
        <mxCell id="xhrjm7PEqScBgSwsqHAB-35" value="+ draw(Graphics canvas) void" style="text;strokeColor=none;fillColor=none;align=left;verticalAlign=top;spacingLeft=4;spacingRight=4;overflow=hidden;rotatable=0;points=[[0,0.5],[1,0.5]];portConstraint=eastwest;whiteSpace=wrap;html=1;rounded=1;" parent="xhrjm7PEqScBgSwsqHAB-32" vertex="1">
          <mxGeometry y="58" width="170" height="26" as="geometry" />
        </mxCell>
        <mxCell id="xhrjm7PEqScBgSwsqHAB-36" value="" style="endArrow=none;html=1;edgeStyle=orthogonalEdgeStyle;rounded=1;entryX=0.212;entryY=0.01;entryDx=0;entryDy=0;entryPerimeter=0;" parent="1" target="xhrjm7PEqScBgSwsqHAB-32" edge="1">
          <mxGeometry relative="1" as="geometry">
            <mxPoint x="280" y="540" as="sourcePoint" />
            <mxPoint x="470" y="590" as="targetPoint" />
          </mxGeometry>
        </mxCell>
        <mxCell id="xhrjm7PEqScBgSwsqHAB-39" value="Extends" style="endArrow=block;endSize=16;endFill=0;html=1;rounded=1;entryX=0.523;entryY=1.015;entryDx=0;entryDy=0;entryPerimeter=0;" parent="1" target="xhrjm7PEqScBgSwsqHAB-27" edge="1">
          <mxGeometry width="160" relative="1" as="geometry">
            <mxPoint x="280" y="750" as="sourcePoint" />
            <mxPoint x="380" y="750" as="targetPoint" />
          </mxGeometry>
        </mxCell>
        <mxCell id="xhrjm7PEqScBgSwsqHAB-40" value="Square" style="swimlane;fontStyle=1;align=center;verticalAlign=top;childLayout=stackLayout;horizontal=1;startSize=26;horizontalStack=0;resizeParent=1;resizeParentMax=0;resizeLast=0;collapsible=1;marginBottom=0;whiteSpace=wrap;html=1;rounded=1;" parent="1" vertex="1">
          <mxGeometry x="190" y="750" width="170" height="84" as="geometry" />
        </mxCell>
        <mxCell id="xhrjm7PEqScBgSwsqHAB-41" value="- sideLength int" style="text;strokeColor=none;fillColor=none;align=left;verticalAlign=top;spacingLeft=4;spacingRight=4;overflow=hidden;rotatable=0;points=[[0,0.5],[1,0.5]];portConstraint=eastwest;whiteSpace=wrap;html=1;rounded=1;" parent="xhrjm7PEqScBgSwsqHAB-40" vertex="1">
          <mxGeometry y="26" width="170" height="24" as="geometry" />
        </mxCell>
        <mxCell id="xhrjm7PEqScBgSwsqHAB-42" value="" style="line;strokeWidth=1;fillColor=none;align=left;verticalAlign=middle;spacingTop=-1;spacingLeft=3;spacingRight=3;rotatable=0;labelPosition=right;points=[];portConstraint=eastwest;strokeColor=inherit;rounded=1;" parent="xhrjm7PEqScBgSwsqHAB-40" vertex="1">
          <mxGeometry y="50" width="170" height="8" as="geometry" />
        </mxCell>
        <mxCell id="xhrjm7PEqScBgSwsqHAB-43" value="+ draw(Graphics canvas) void" style="text;strokeColor=none;fillColor=none;align=left;verticalAlign=top;spacingLeft=4;spacingRight=4;overflow=hidden;rotatable=0;points=[[0,0.5],[1,0.5]];portConstraint=eastwest;whiteSpace=wrap;html=1;rounded=1;" parent="xhrjm7PEqScBgSwsqHAB-40" vertex="1">
          <mxGeometry y="58" width="170" height="26" as="geometry" />
        </mxCell>
        <mxCell id="xhrjm7PEqScBgSwsqHAB-46" value="«interface»&lt;br&gt;&lt;b&gt;DrawingEngine&lt;/b&gt;&lt;div style=&quot;text-align: left;&quot;&gt;&lt;b&gt;____________________________________&lt;/b&gt;&lt;/div&gt;&lt;div style=&quot;&quot;&gt;&lt;div style=&quot;text-align: left;&quot;&gt;&lt;b style=&quot;font-size: 9px;&quot;&gt;+&amp;nbsp;&lt;/b&gt;&lt;span style=&quot;background-color: initial; text-align: center;&quot;&gt;&lt;font size=&quot;1&quot;&gt;&lt;b&gt;addShape(Shape shape) void&lt;/b&gt;&lt;/font&gt;&lt;/span&gt;&lt;b style=&quot;font-size: 9px;&quot;&gt;&lt;br&gt;&lt;/b&gt;&lt;/div&gt;&lt;div style=&quot;text-align: left;&quot;&gt;&lt;span style=&quot;background-color: initial; text-align: center;&quot;&gt;&lt;font size=&quot;1&quot;&gt;&lt;b&gt;+&amp;nbsp;&lt;/b&gt;&lt;/font&gt;&lt;/span&gt;&lt;span style=&quot;background-color: initial; text-align: center;&quot;&gt;&lt;font size=&quot;1&quot;&gt;&lt;b&gt;removeShape(Shape shape) void&lt;/b&gt;&lt;/font&gt;&lt;/span&gt;&lt;/div&gt;&lt;div style=&quot;text-align: left;&quot;&gt;&lt;span style=&quot;background-color: initial; text-align: center;&quot;&gt;&lt;font size=&quot;1&quot;&gt;&lt;b&gt;+&amp;nbsp;&lt;/b&gt;&lt;/font&gt;&lt;/span&gt;&lt;span style=&quot;background-color: initial; text-align: center;&quot;&gt;&lt;font size=&quot;1&quot;&gt;&lt;b&gt;getShapes() Shapes[]&lt;/b&gt;&lt;/font&gt;&lt;/span&gt;&lt;/div&gt;&lt;div style=&quot;text-align: left;&quot;&gt;&lt;span style=&quot;background-color: initial; text-align: center;&quot;&gt;&lt;font size=&quot;1&quot;&gt;&lt;b&gt;+ refresh(Graphics canvas) void&lt;/b&gt;&lt;/font&gt;&lt;/span&gt;&lt;/div&gt;&lt;/div&gt;" style="html=1;whiteSpace=wrap;rounded=1;" parent="1" vertex="1">
          <mxGeometry x="-310" y="40" width="240" height="130" as="geometry" />
        </mxCell>
        <mxCell id="xhrjm7PEqScBgSwsqHAB-47" value="" style="endArrow=block;dashed=1;endFill=0;endSize=12;html=1;rounded=1;entryX=0.58;entryY=1;entryDx=0;entryDy=0;entryPerimeter=0;exitX=0.554;exitY=0.013;exitDx=0;exitDy=0;exitPerimeter=0;" parent="1" source="xhrjm7PEqScBgSwsqHAB-48" target="xhrjm7PEqScBgSwsqHAB-46" edge="1">
          <mxGeometry width="160" relative="1" as="geometry">
            <mxPoint x="-214" y="230" as="sourcePoint" />
            <mxPoint x="80" y="300" as="targetPoint" />
            <Array as="points" />
          </mxGeometry>
        </mxCell>
        <mxCell id="xhrjm7PEqScBgSwsqHAB-53" value="implements" style="edgeLabel;html=1;align=center;verticalAlign=middle;resizable=0;points=[];rounded=1;" parent="xhrjm7PEqScBgSwsqHAB-47" vertex="1" connectable="0">
          <mxGeometry x="-0.2872" y="-1" relative="1" as="geometry">
            <mxPoint as="offset" />
          </mxGeometry>
        </mxCell>
        <mxCell id="xhrjm7PEqScBgSwsqHAB-48" value="DrawerClass" style="swimlane;fontStyle=1;align=center;verticalAlign=top;childLayout=stackLayout;horizontal=1;startSize=26;horizontalStack=0;resizeParent=1;resizeParentMax=0;resizeLast=0;collapsible=1;marginBottom=0;whiteSpace=wrap;html=1;rounded=1;" parent="1" vertex="1">
          <mxGeometry x="-310" y="230" width="250" height="60" as="geometry" />
        </mxCell>
        <mxCell id="bDDsGHtLVl3NakTiuA9_-1" value="- Shapes ArrayList&amp;lt;Shape&amp;gt;" style="text;strokeColor=none;fillColor=none;align=left;verticalAlign=top;spacingLeft=4;spacingRight=4;overflow=hidden;rotatable=0;points=[[0,0.5],[1,0.5]];portConstraint=eastwest;whiteSpace=wrap;html=1;rounded=1;" vertex="1" parent="xhrjm7PEqScBgSwsqHAB-48">
          <mxGeometry y="26" width="250" height="26" as="geometry" />
        </mxCell>
        <mxCell id="xhrjm7PEqScBgSwsqHAB-50" value="" style="line;strokeWidth=1;fillColor=none;align=left;verticalAlign=middle;spacingTop=-1;spacingLeft=3;spacingRight=3;rotatable=0;labelPosition=right;points=[];portConstraint=eastwest;strokeColor=inherit;rounded=1;" parent="xhrjm7PEqScBgSwsqHAB-48" vertex="1">
          <mxGeometry y="52" width="250" height="8" as="geometry" />
        </mxCell>
        <mxCell id="xhrjm7PEqScBgSwsqHAB-52" value="0...*" style="endArrow=open;html=1;endSize=12;startArrow=diamondThin;startSize=14;startFill=1;edgeStyle=orthogonalEdgeStyle;align=left;verticalAlign=bottom;rounded=1;exitX=1;exitY=0.5;exitDx=0;exitDy=0;entryX=-0.001;entryY=0.428;entryDx=0;entryDy=0;entryPerimeter=0;" parent="1" target="xhrjm7PEqScBgSwsqHAB-4" edge="1">
          <mxGeometry x="-1" y="3" relative="1" as="geometry">
            <mxPoint x="-60" y="295" as="sourcePoint" />
            <mxPoint x="117" y="267" as="targetPoint" />
            <Array as="points">
              <mxPoint x="-30" y="295" />
              <mxPoint x="-30" y="269" />
              <mxPoint x="110" y="269" />
              <mxPoint x="110" y="266" />
            </Array>
          </mxGeometry>
        </mxCell>
        <mxCell id="xhrjm7PEqScBgSwsqHAB-54" value="must have" style="edgeLabel;html=1;align=center;verticalAlign=middle;resizable=0;points=[];rounded=1;" parent="xhrjm7PEqScBgSwsqHAB-52" vertex="1" connectable="0">
          <mxGeometry x="-0.0974" relative="1" as="geometry">
            <mxPoint as="offset" />
          </mxGeometry>
        </mxCell>
        <mxCell id="xhrjm7PEqScBgSwsqHAB-55" value="MainWindow" style="swimlane;fontStyle=1;align=center;verticalAlign=top;childLayout=stackLayout;horizontal=1;startSize=26;horizontalStack=0;resizeParent=1;resizeParentMax=0;resizeLast=0;collapsible=1;marginBottom=0;whiteSpace=wrap;html=1;rounded=1;" parent="1" vertex="1">
          <mxGeometry x="-1350" y="140" width="350" height="300" as="geometry" />
        </mxCell>
        <mxCell id="xhrjm7PEqScBgSwsqHAB-56" value="- shapeChooser JComboBox&amp;lt;String&amp;gt;&lt;div&gt;- colorizeButton JButton&lt;/div&gt;&lt;div&gt;- drawCircle JButton&lt;/div&gt;&lt;div&gt;- drawRect JButton&lt;/div&gt;&lt;div&gt;- drawLineSegmentJButton&lt;/div&gt;&lt;div&gt;- drawSquare JButton&lt;/div&gt;&lt;div&gt;-&amp;nbsp;shapeDeleter JButton&lt;/div&gt;&lt;div&gt;- drawingArea JPanel&lt;/div&gt;" style="text;strokeColor=none;fillColor=none;align=left;verticalAlign=top;spacingLeft=4;spacingRight=4;overflow=hidden;rotatable=0;points=[[0,0.5],[1,0.5]];portConstraint=eastwest;whiteSpace=wrap;html=1;rounded=1;" parent="xhrjm7PEqScBgSwsqHAB-55" vertex="1">
          <mxGeometry y="26" width="350" height="124" as="geometry" />
        </mxCell>
        <mxCell id="xhrjm7PEqScBgSwsqHAB-57" value="" style="line;strokeWidth=1;fillColor=none;align=left;verticalAlign=middle;spacingTop=-1;spacingLeft=3;spacingRight=3;rotatable=0;labelPosition=right;points=[];portConstraint=eastwest;strokeColor=inherit;rounded=1;" parent="xhrjm7PEqScBgSwsqHAB-55" vertex="1">
          <mxGeometry y="150" width="350" height="10" as="geometry" />
        </mxCell>
        <mxCell id="xhrjm7PEqScBgSwsqHAB-64" value="+&amp;nbsp;bindShapesToComboBox() void&lt;div&gt;+&amp;nbsp;colorizeButtonActionPerformed(ActionEvent) void&lt;/div&gt;&lt;div&gt;+&amp;nbsp;shapeDeleterButtonActionPerformed(&lt;span style=&quot;background-color: initial;&quot;&gt;ActionEvent) void&lt;/span&gt;&lt;/div&gt;&lt;div&gt;&lt;span style=&quot;background-color: initial;&quot;&gt;+&amp;nbsp;&lt;/span&gt;&lt;span style=&quot;background-color: initial;&quot;&gt;drawCircleActionPerformed(ActionEvent) void&lt;/span&gt;&lt;/div&gt;&lt;div&gt;&lt;span style=&quot;background-color: initial;&quot;&gt;+&amp;nbsp;&lt;/span&gt;&lt;span style=&quot;background-color: initial;&quot;&gt;ShapeChooserComboBoxActionPerformed(ActionEvent) void&lt;/span&gt;&lt;/div&gt;&lt;div&gt;&lt;span style=&quot;background-color: initial;&quot;&gt;+&amp;nbsp;&lt;/span&gt;&lt;span style=&quot;background-color: initial;&quot;&gt;drawLineSegmentActionPerformed(ActionEvent) void&lt;/span&gt;&lt;/div&gt;&lt;div&gt;&lt;span style=&quot;background-color: initial;&quot;&gt;+ getDrawingArea() JPanel&lt;/span&gt;&lt;/div&gt;&lt;div&gt;&lt;span style=&quot;background-color: initial;&quot;&gt;+&amp;nbsp;&lt;/span&gt;&lt;span style=&quot;background-color: initial;&quot;&gt;drawSquareActionPerformed(ActionEvent) void&lt;/span&gt;&lt;/div&gt;&lt;div&gt;&lt;span style=&quot;background-color: initial;&quot;&gt;+&amp;nbsp;&lt;/span&gt;&lt;span style=&quot;background-color: initial;&quot;&gt;drawRectActionPerformed(ActionEvent) void&lt;/span&gt;&lt;/div&gt;&lt;div&gt;&lt;br&gt;&lt;/div&gt;" style="text;strokeColor=none;fillColor=none;align=left;verticalAlign=top;spacingLeft=4;spacingRight=4;overflow=hidden;rotatable=0;points=[[0,0.5],[1,0.5]];portConstraint=eastwest;whiteSpace=wrap;html=1;rounded=1;" parent="xhrjm7PEqScBgSwsqHAB-55" vertex="1">
          <mxGeometry y="160" width="350" height="140" as="geometry" />
        </mxCell>
        <mxCell id="xhrjm7PEqScBgSwsqHAB-59" value="1" style="endArrow=open;html=1;endSize=12;startArrow=diamondThin;startSize=14;startFill=1;edgeStyle=orthogonalEdgeStyle;align=left;verticalAlign=bottom;rounded=1;exitX=1;exitY=0.553;exitDx=0;exitDy=0;exitPerimeter=0;entryX=0.003;entryY=0.223;entryDx=0;entryDy=0;entryPerimeter=0;" parent="1" source="xhrjm7PEqScBgSwsqHAB-56" target="bDDsGHtLVl3NakTiuA9_-1" edge="1">
          <mxGeometry x="-1" y="3" relative="1" as="geometry">
            <mxPoint x="-420" y="220" as="sourcePoint" />
            <mxPoint x="-300" y="265" as="targetPoint" />
          </mxGeometry>
        </mxCell>
        <mxCell id="xhrjm7PEqScBgSwsqHAB-60" value="must have" style="edgeLabel;html=1;align=center;verticalAlign=middle;resizable=0;points=[];rounded=1;" parent="xhrjm7PEqScBgSwsqHAB-59" vertex="1" connectable="0">
          <mxGeometry x="-0.0812" relative="1" as="geometry">
            <mxPoint x="-1" as="offset" />
          </mxGeometry>
        </mxCell>
        <mxCell id="bDDsGHtLVl3NakTiuA9_-2" value="0..1" style="endArrow=open;html=1;endSize=12;startArrow=diamondThin;startSize=14;startFill=1;edgeStyle=orthogonalEdgeStyle;align=left;verticalAlign=bottom;rounded=1;exitX=0.715;exitY=1.002;exitDx=0;exitDy=0;exitPerimeter=0;entryX=0.538;entryY=-0.011;entryDx=0;entryDy=0;entryPerimeter=0;" edge="1" parent="1" source="xhrjm7PEqScBgSwsqHAB-64" target="bDDsGHtLVl3NakTiuA9_-3">
          <mxGeometry x="-1" y="3" relative="1" as="geometry">
            <mxPoint x="-760" y="510" as="sourcePoint" />
            <mxPoint x="-970" y="640" as="targetPoint" />
            <Array as="points">
              <mxPoint x="-1100" y="445" />
              <mxPoint x="-1100" y="510" />
              <mxPoint x="-1150" y="510" />
              <mxPoint x="-1150" y="640" />
              <mxPoint x="-1149" y="640" />
            </Array>
          </mxGeometry>
        </mxCell>
        <mxCell id="bDDsGHtLVl3NakTiuA9_-14" value="creates" style="edgeLabel;html=1;align=center;verticalAlign=middle;resizable=0;points=[];rounded=1;" vertex="1" connectable="0" parent="bDDsGHtLVl3NakTiuA9_-2">
          <mxGeometry x="-0.9321" relative="1" as="geometry">
            <mxPoint x="-22" y="25" as="offset" />
          </mxGeometry>
        </mxCell>
        <mxCell id="bDDsGHtLVl3NakTiuA9_-3" value="LineSegmentWindow" style="swimlane;fontStyle=1;align=center;verticalAlign=top;childLayout=stackLayout;horizontal=1;startSize=26;horizontalStack=0;resizeParent=1;resizeParentMax=0;resizeLast=0;collapsible=1;marginBottom=0;whiteSpace=wrap;html=1;rounded=1;" vertex="1" parent="1">
          <mxGeometry x="-1310" y="650" width="300" height="114" as="geometry" />
        </mxCell>
        <mxCell id="bDDsGHtLVl3NakTiuA9_-4" value="- submitLineSegment JButton&lt;div&gt;&lt;br&gt;&lt;/div&gt;&lt;div&gt;&lt;u&gt;- parent MainWindow&lt;/u&gt;&lt;/div&gt;" style="text;strokeColor=none;fillColor=none;align=left;verticalAlign=top;spacingLeft=4;spacingRight=4;overflow=hidden;rotatable=0;points=[[0,0.5],[1,0.5]];portConstraint=eastwest;whiteSpace=wrap;html=1;rounded=1;" vertex="1" parent="bDDsGHtLVl3NakTiuA9_-3">
          <mxGeometry y="26" width="300" height="54" as="geometry" />
        </mxCell>
        <mxCell id="bDDsGHtLVl3NakTiuA9_-5" value="" style="line;strokeWidth=1;fillColor=none;align=left;verticalAlign=middle;spacingTop=-1;spacingLeft=3;spacingRight=3;rotatable=0;labelPosition=right;points=[];portConstraint=eastwest;strokeColor=inherit;rounded=1;" vertex="1" parent="bDDsGHtLVl3NakTiuA9_-3">
          <mxGeometry y="80" width="300" height="8" as="geometry" />
        </mxCell>
        <mxCell id="bDDsGHtLVl3NakTiuA9_-6" value="+&amp;nbsp;&amp;nbsp;SubmitLineSegmentActionPerformed(ActionEvent)" style="text;strokeColor=none;fillColor=none;align=left;verticalAlign=top;spacingLeft=4;spacingRight=4;overflow=hidden;rotatable=0;points=[[0,0.5],[1,0.5]];portConstraint=eastwest;whiteSpace=wrap;html=1;rounded=1;" vertex="1" parent="bDDsGHtLVl3NakTiuA9_-3">
          <mxGeometry y="88" width="300" height="26" as="geometry" />
        </mxCell>
        <mxCell id="bDDsGHtLVl3NakTiuA9_-9" value="" style="endArrow=open;endFill=1;endSize=12;html=1;rounded=1;entryX=0.371;entryY=0.007;entryDx=0;entryDy=0;entryPerimeter=0;" edge="1" parent="1" target="bDDsGHtLVl3NakTiuA9_-10">
          <mxGeometry width="160" relative="1" as="geometry">
            <mxPoint x="-880" y="510" as="sourcePoint" />
            <mxPoint x="-880" y="660" as="targetPoint" />
          </mxGeometry>
        </mxCell>
        <mxCell id="bDDsGHtLVl3NakTiuA9_-10" value="CircleWindow&lt;span style=&quot;white-space: pre;&quot;&gt;&#x9;&lt;/span&gt;" style="swimlane;fontStyle=1;align=center;verticalAlign=top;childLayout=stackLayout;horizontal=1;startSize=26;horizontalStack=0;resizeParent=1;resizeParentMax=0;resizeLast=0;collapsible=1;marginBottom=0;whiteSpace=wrap;html=1;rounded=1;" vertex="1" parent="1">
          <mxGeometry x="-990" y="660" width="300" height="124" as="geometry" />
        </mxCell>
        <mxCell id="bDDsGHtLVl3NakTiuA9_-11" value="- submitCircle JButton&lt;div&gt;&lt;br&gt;&lt;/div&gt;&lt;div&gt;&lt;u&gt;- parent MainWindow&lt;/u&gt;&lt;/div&gt;" style="text;strokeColor=none;fillColor=none;align=left;verticalAlign=top;spacingLeft=4;spacingRight=4;overflow=hidden;rotatable=0;points=[[0,0.5],[1,0.5]];portConstraint=eastwest;whiteSpace=wrap;html=1;rounded=1;" vertex="1" parent="bDDsGHtLVl3NakTiuA9_-10">
          <mxGeometry y="26" width="300" height="64" as="geometry" />
        </mxCell>
        <mxCell id="bDDsGHtLVl3NakTiuA9_-12" value="" style="line;strokeWidth=1;fillColor=none;align=left;verticalAlign=middle;spacingTop=-1;spacingLeft=3;spacingRight=3;rotatable=0;labelPosition=right;points=[];portConstraint=eastwest;strokeColor=inherit;rounded=1;" vertex="1" parent="bDDsGHtLVl3NakTiuA9_-10">
          <mxGeometry y="90" width="300" height="8" as="geometry" />
        </mxCell>
        <mxCell id="bDDsGHtLVl3NakTiuA9_-13" value="+&amp;nbsp;&amp;nbsp;SubmitCircleActionPerformed(ActionEvent)" style="text;strokeColor=none;fillColor=none;align=left;verticalAlign=top;spacingLeft=4;spacingRight=4;overflow=hidden;rotatable=0;points=[[0,0.5],[1,0.5]];portConstraint=eastwest;whiteSpace=wrap;html=1;rounded=1;" vertex="1" parent="bDDsGHtLVl3NakTiuA9_-10">
          <mxGeometry y="98" width="300" height="26" as="geometry" />
        </mxCell>
        <mxCell id="bDDsGHtLVl3NakTiuA9_-15" value="RectangleWindow" style="swimlane;fontStyle=1;align=center;verticalAlign=top;childLayout=stackLayout;horizontal=1;startSize=26;horizontalStack=0;resizeParent=1;resizeParentMax=0;resizeLast=0;collapsible=1;marginBottom=0;whiteSpace=wrap;html=1;rounded=1;" vertex="1" parent="1">
          <mxGeometry x="-650" y="664" width="300" height="124" as="geometry" />
        </mxCell>
        <mxCell id="bDDsGHtLVl3NakTiuA9_-16" value="- submitRect JButton&lt;div&gt;&lt;br&gt;&lt;/div&gt;&lt;div&gt;&lt;u&gt;- parent MainWindow&lt;/u&gt;&lt;/div&gt;" style="text;strokeColor=none;fillColor=none;align=left;verticalAlign=top;spacingLeft=4;spacingRight=4;overflow=hidden;rotatable=0;points=[[0,0.5],[1,0.5]];portConstraint=eastwest;whiteSpace=wrap;html=1;rounded=1;" vertex="1" parent="bDDsGHtLVl3NakTiuA9_-15">
          <mxGeometry y="26" width="300" height="64" as="geometry" />
        </mxCell>
        <mxCell id="bDDsGHtLVl3NakTiuA9_-17" value="" style="line;strokeWidth=1;fillColor=none;align=left;verticalAlign=middle;spacingTop=-1;spacingLeft=3;spacingRight=3;rotatable=0;labelPosition=right;points=[];portConstraint=eastwest;strokeColor=inherit;rounded=1;" vertex="1" parent="bDDsGHtLVl3NakTiuA9_-15">
          <mxGeometry y="90" width="300" height="8" as="geometry" />
        </mxCell>
        <mxCell id="bDDsGHtLVl3NakTiuA9_-18" value="+&amp;nbsp;&amp;nbsp;SubmitRectActionPerformed(ActionEvent)" style="text;strokeColor=none;fillColor=none;align=left;verticalAlign=top;spacingLeft=4;spacingRight=4;overflow=hidden;rotatable=0;points=[[0,0.5],[1,0.5]];portConstraint=eastwest;whiteSpace=wrap;html=1;rounded=1;" vertex="1" parent="bDDsGHtLVl3NakTiuA9_-15">
          <mxGeometry y="98" width="300" height="26" as="geometry" />
        </mxCell>
        <mxCell id="bDDsGHtLVl3NakTiuA9_-19" value="" style="endArrow=open;endFill=1;endSize=12;html=1;rounded=1;entryX=0.088;entryY=0.021;entryDx=0;entryDy=0;entryPerimeter=0;" edge="1" parent="1" target="bDDsGHtLVl3NakTiuA9_-15">
          <mxGeometry width="160" relative="1" as="geometry">
            <mxPoint x="-630" y="510" as="sourcePoint" />
            <mxPoint x="-869" y="671" as="targetPoint" />
            <Array as="points">
              <mxPoint x="-624" y="590" />
            </Array>
          </mxGeometry>
        </mxCell>
        <mxCell id="bDDsGHtLVl3NakTiuA9_-20" value="" style="endArrow=open;endFill=1;endSize=12;html=1;rounded=1;entryX=0.506;entryY=0.001;entryDx=0;entryDy=0;entryPerimeter=0;" edge="1" parent="1" target="bDDsGHtLVl3NakTiuA9_-21">
          <mxGeometry width="160" relative="1" as="geometry">
            <mxPoint x="-1150" y="510" as="sourcePoint" />
            <mxPoint x="-1520" y="640" as="targetPoint" />
            <Array as="points">
              <mxPoint x="-1520" y="510" />
            </Array>
          </mxGeometry>
        </mxCell>
        <mxCell id="bDDsGHtLVl3NakTiuA9_-21" value="SquareWindow" style="swimlane;fontStyle=1;align=center;verticalAlign=top;childLayout=stackLayout;horizontal=1;startSize=26;horizontalStack=0;resizeParent=1;resizeParentMax=0;resizeLast=0;collapsible=1;marginBottom=0;whiteSpace=wrap;html=1;rounded=1;" vertex="1" parent="1">
          <mxGeometry x="-1670" y="640" width="300" height="124" as="geometry" />
        </mxCell>
        <mxCell id="bDDsGHtLVl3NakTiuA9_-22" value="- submitSquare JButton&lt;div&gt;&lt;br&gt;&lt;/div&gt;&lt;div&gt;&lt;u&gt;- parent MainWindow&lt;/u&gt;&lt;/div&gt;" style="text;strokeColor=none;fillColor=none;align=left;verticalAlign=top;spacingLeft=4;spacingRight=4;overflow=hidden;rotatable=0;points=[[0,0.5],[1,0.5]];portConstraint=eastwest;whiteSpace=wrap;html=1;rounded=1;" vertex="1" parent="bDDsGHtLVl3NakTiuA9_-21">
          <mxGeometry y="26" width="300" height="64" as="geometry" />
        </mxCell>
        <mxCell id="bDDsGHtLVl3NakTiuA9_-23" value="" style="line;strokeWidth=1;fillColor=none;align=left;verticalAlign=middle;spacingTop=-1;spacingLeft=3;spacingRight=3;rotatable=0;labelPosition=right;points=[];portConstraint=eastwest;strokeColor=inherit;rounded=1;" vertex="1" parent="bDDsGHtLVl3NakTiuA9_-21">
          <mxGeometry y="90" width="300" height="8" as="geometry" />
        </mxCell>
        <mxCell id="bDDsGHtLVl3NakTiuA9_-24" value="+&amp;nbsp;&amp;nbsp;SubmitSquareActionPerformed(ActionEvent)" style="text;strokeColor=none;fillColor=none;align=left;verticalAlign=top;spacingLeft=4;spacingRight=4;overflow=hidden;rotatable=0;points=[[0,0.5],[1,0.5]];portConstraint=eastwest;whiteSpace=wrap;html=1;rounded=1;" vertex="1" parent="bDDsGHtLVl3NakTiuA9_-21">
          <mxGeometry y="98" width="300" height="26" as="geometry" />
        </mxCell>
        <mxCell id="bDDsGHtLVl3NakTiuA9_-25" value="" style="endArrow=none;html=1;edgeStyle=orthogonalEdgeStyle;rounded=1;" edge="1" parent="1">
          <mxGeometry relative="1" as="geometry">
            <mxPoint x="-1100" y="510" as="sourcePoint" />
            <mxPoint x="-630" y="510" as="targetPoint" />
          </mxGeometry>
        </mxCell>
        <mxCell id="bDDsGHtLVl3NakTiuA9_-28" value="ColorChooser" style="swimlane;fontStyle=1;align=center;verticalAlign=top;childLayout=stackLayout;horizontal=1;startSize=26;horizontalStack=0;resizeParent=1;resizeParentMax=0;resizeLast=0;collapsible=1;marginBottom=0;whiteSpace=wrap;html=1;rounded=1;" vertex="1" parent="1">
          <mxGeometry x="-2015" y="640" width="290" height="190" as="geometry" />
        </mxCell>
        <mxCell id="bDDsGHtLVl3NakTiuA9_-29" value="- colorChooser&amp;nbsp;JComboBox&amp;lt;String&amp;gt;&lt;div&gt;- submitColor JButton&lt;/div&gt;&lt;div&gt;- colorFillButton JButton&lt;/div&gt;&lt;div&gt;&lt;u&gt;- colorArray Color[]&lt;/u&gt;&lt;/div&gt;&lt;div&gt;&lt;u&gt;- colorNames String[]&lt;/u&gt;&lt;u&gt;&lt;/u&gt;&lt;/div&gt;&lt;div&gt;&lt;u&gt;- parent MainWindow&lt;/u&gt;&lt;/div&gt;" style="text;strokeColor=none;fillColor=none;align=left;verticalAlign=top;spacingLeft=4;spacingRight=4;overflow=hidden;rotatable=0;points=[[0,0.5],[1,0.5]];portConstraint=eastwest;whiteSpace=wrap;html=1;rounded=1;" vertex="1" parent="bDDsGHtLVl3NakTiuA9_-28">
          <mxGeometry y="26" width="290" height="94" as="geometry" />
        </mxCell>
        <mxCell id="bDDsGHtLVl3NakTiuA9_-30" value="" style="line;strokeWidth=1;fillColor=none;align=left;verticalAlign=middle;spacingTop=-1;spacingLeft=3;spacingRight=3;rotatable=0;labelPosition=right;points=[];portConstraint=eastwest;strokeColor=inherit;rounded=1;" vertex="1" parent="bDDsGHtLVl3NakTiuA9_-28">
          <mxGeometry y="120" width="290" height="8" as="geometry" />
        </mxCell>
        <mxCell id="bDDsGHtLVl3NakTiuA9_-31" value="+ colorFillButtonActionPerformed(ActionEvent)&lt;div&gt;+ submitColorActionPerformed(ActionEvent)&lt;/div&gt;&lt;div&gt;+ setupColorChooser()&lt;/div&gt;" style="text;strokeColor=none;fillColor=none;align=left;verticalAlign=top;spacingLeft=4;spacingRight=4;overflow=hidden;rotatable=0;points=[[0,0.5],[1,0.5]];portConstraint=eastwest;whiteSpace=wrap;html=1;rounded=1;" vertex="1" parent="bDDsGHtLVl3NakTiuA9_-28">
          <mxGeometry y="128" width="290" height="62" as="geometry" />
        </mxCell>
        <mxCell id="bDDsGHtLVl3NakTiuA9_-32" value="" style="endArrow=open;endFill=1;endSize=12;html=1;rounded=1;entryX=0.25;entryY=0;entryDx=0;entryDy=0;" edge="1" parent="1" target="bDDsGHtLVl3NakTiuA9_-28">
          <mxGeometry width="160" relative="1" as="geometry">
            <mxPoint x="-1520" y="510" as="sourcePoint" />
            <mxPoint x="-1780" y="560" as="targetPoint" />
            <Array as="points">
              <mxPoint x="-1940" y="510" />
            </Array>
          </mxGeometry>
        </mxCell>
        <mxCell id="bDDsGHtLVl3NakTiuA9_-33" value="" style="endArrow=open;endSize=12;dashed=1;html=1;rounded=1;exitX=1.007;exitY=0.692;exitDx=0;exitDy=0;exitPerimeter=0;entryX=0;entryY=1;entryDx=0;entryDy=0;entryPerimeter=0;" edge="1" parent="1" source="bDDsGHtLVl3NakTiuA9_-16" target="xhrjm7PEqScBgSwsqHAB-25">
          <mxGeometry width="160" relative="1" as="geometry">
            <mxPoint x="-290" y="734.3299999999999" as="sourcePoint" />
            <mxPoint x="-130" y="734.3299999999999" as="targetPoint" />
          </mxGeometry>
        </mxCell>
        <mxCell id="bDDsGHtLVl3NakTiuA9_-34" value="creates instance of" style="edgeLabel;html=1;align=center;verticalAlign=middle;resizable=0;points=[];rounded=1;" vertex="1" connectable="0" parent="bDDsGHtLVl3NakTiuA9_-33">
          <mxGeometry x="0.0563" relative="1" as="geometry">
            <mxPoint as="offset" />
          </mxGeometry>
        </mxCell>
        <mxCell id="bDDsGHtLVl3NakTiuA9_-35" value="Creates instance of" style="endArrow=open;endSize=12;dashed=1;html=1;rounded=1;entryX=0.741;entryY=1.154;entryDx=0;entryDy=0;entryPerimeter=0;exitX=0.771;exitY=1.018;exitDx=0;exitDy=0;exitPerimeter=0;" edge="1" parent="1" source="bDDsGHtLVl3NakTiuA9_-13" target="xhrjm7PEqScBgSwsqHAB-35">
          <mxGeometry width="160" relative="1" as="geometry">
            <mxPoint x="-690" y="780" as="sourcePoint" />
            <mxPoint x="670" y="510" as="targetPoint" />
            <Array as="points">
              <mxPoint x="-680" y="920" />
              <mxPoint y="930" />
              <mxPoint x="598" y="920" />
            </Array>
          </mxGeometry>
        </mxCell>
        <mxCell id="bDDsGHtLVl3NakTiuA9_-36" value="Creates instance of" style="endArrow=open;endSize=12;dashed=1;html=1;rounded=1;exitX=0.399;exitY=0.885;exitDx=0;exitDy=0;exitPerimeter=0;entryX=0.265;entryY=1.161;entryDx=0;entryDy=0;entryPerimeter=0;" edge="1" parent="1" source="bDDsGHtLVl3NakTiuA9_-6" target="xhrjm7PEqScBgSwsqHAB-11">
          <mxGeometry width="160" relative="1" as="geometry">
            <mxPoint x="-1198" y="650" as="sourcePoint" />
            <mxPoint x="98" y="572" as="targetPoint" />
            <Array as="points">
              <mxPoint x="-1170" y="870" />
              <mxPoint x="-570" y="860" />
              <mxPoint x="-120" y="860" />
            </Array>
          </mxGeometry>
        </mxCell>
        <mxCell id="bDDsGHtLVl3NakTiuA9_-37" value="" style="endArrow=open;endSize=12;dashed=1;html=1;rounded=1;entryX=0.865;entryY=1.154;entryDx=0;entryDy=0;entryPerimeter=0;exitX=0.28;exitY=1;exitDx=0;exitDy=0;exitPerimeter=0;" edge="1" parent="1" source="bDDsGHtLVl3NakTiuA9_-24" target="xhrjm7PEqScBgSwsqHAB-43">
          <mxGeometry width="160" relative="1" as="geometry">
            <mxPoint x="-1590" y="990" as="sourcePoint" />
            <mxPoint x="340" y="950" as="targetPoint" />
            <Array as="points">
              <mxPoint x="-1590" y="1020" />
              <mxPoint x="340" y="990" />
            </Array>
          </mxGeometry>
        </mxCell>
        <mxCell id="bDDsGHtLVl3NakTiuA9_-38" value="creates instance of" style="edgeLabel;html=1;align=center;verticalAlign=middle;resizable=0;points=[];rounded=1;" vertex="1" connectable="0" parent="bDDsGHtLVl3NakTiuA9_-37">
          <mxGeometry x="0.0563" relative="1" as="geometry">
            <mxPoint as="offset" />
          </mxGeometry>
        </mxCell>
        <mxCell id="bDDsGHtLVl3NakTiuA9_-39" value="0...*" style="endArrow=open;html=1;endSize=12;startArrow=diamondThin;startSize=14;startFill=0;edgeStyle=orthogonalEdgeStyle;align=left;verticalAlign=bottom;rounded=1;exitX=0.049;exitY=-0.002;exitDx=0;exitDy=0;exitPerimeter=0;entryX=0.116;entryY=0.003;entryDx=0;entryDy=0;entryPerimeter=0;" edge="1" parent="1" source="bDDsGHtLVl3NakTiuA9_-28" target="xhrjm7PEqScBgSwsqHAB-3">
          <mxGeometry x="-0.9707" y="8" relative="1" as="geometry">
            <mxPoint x="-2040" y="480" as="sourcePoint" />
            <mxPoint x="120" y="30" as="targetPoint" />
            <Array as="points">
              <mxPoint x="-2001" y="620" />
              <mxPoint x="-1982" y="620" />
              <mxPoint x="-1982" y="30" />
              <mxPoint x="161" y="30" />
            </Array>
            <mxPoint as="offset" />
          </mxGeometry>
        </mxCell>
      </root>
    </mxGraphModel>
  </diagram>
</mxfile>
